<svg xmlns="http://www.w3.org/2000/svg" viewBox="0 0 96 96" width="96" height="96">
  <title>Title on Sheet Prefix Stripper Icon</title>
  <defs>
    <linearGradient id="magicGradient" x1="0%" y1="100%" x2="100%" y2="0%">
      <stop offset="0%" stop-color="#4a90e2" />
      <stop offset="100%" stop-color="#9013fe" />
    </linearGradient>
  </defs>

  <rect x="8" y="12" width="80" height="32" rx="4" fill="none" stroke="#888888" stroke-width="3" stroke-dasharray="8 4" opacity="0.6"/>

  <rect x="16" y="21" width="20" height="14" rx="2" fill="none" stroke="#888888" stroke-width="4" stroke-dasharray="3 3"/>
  <line x1="12" y1="39" x2="40" y2="17" stroke="#2c3e50" stroke-width="4" stroke-linecap="round"/>

  <rect x="42" y="21" width="38" height="14" rx="2" fill="none" stroke="#888888" stroke-width="4"/>

  <path d="M 61 40 L 61 54 M 55 48 L 61 54 L 67 48" fill="none" stroke="#2c3e50" stroke-width="4" stroke-linecap="round" stroke-linejoin="round"/>

  <circle cx="20" cy="78" r="6" fill="none" stroke="#888888" stroke-width="4"/>
  <line x1="26" y1="78" x2="86" y2="78" stroke="#888888" stroke-width="4" stroke-linecap="round"/>

  <rect x="34" y="58" width="46" height="14" rx="2" fill="none" stroke="url(#magicGradient)" stroke-width="5"/>

  <path d="M 84 46 Q 84 52 90 52 Q 84 52 84 58 Q 84 52 78 52 Q 84 52 84 46 Z" fill="#f5a623" />
  <path d="M 12 50 Q 12 54 16 54 Q 12 54 12 58 Q 12 54 8 54 Q 12 54 12 50 Z" fill="#f5a623" />
</svg>