<svg xmlns="http://www.w3.org/2000/svg" viewBox="0 0 96 96" width="96" height="96">
  <defs>
    <linearGradient id="magicGradient" x1="0%" y1="100%" x2="100%" y2="0%">
      <stop offset="0%" stop-color="#4a90e2" />
      <stop offset="100%" stop-color="#9013fe" />
    </linearGradient>
  </defs>

  <path d="M 4 24 L 14 24 L 22 32 L 22 68 L 4 68 Z" fill="none" stroke="#888888" stroke-width="4" stroke-linejoin="round"/>
  <path d="M 14 24 L 14 32 L 22 32" fill="none" stroke="#888888" stroke-width="4" stroke-linejoin="round"/>
  <path d="M 10 40 Q 8 40 8 46 Q 8 52 10 52 M 16 40 Q 18 40 18 46 Q 18 52 16 52" fill="none" stroke="#888888" stroke-width="3" stroke-linecap="round"/>

  <path d="M 28 46 L 38 46 M 32 40 L 38 46 L 32 52" fill="none" stroke="#2c3e50" stroke-width="4" stroke-linecap="round" stroke-linejoin="round"/>
  
  <rect x="44" y="26" width="46" height="38" fill="none" stroke="#888888" stroke-width="4" rx="2" />
  <line x1="82" y1="26" x2="82" y2="64" stroke="#888888" stroke-width="3"/>
  <line x1="44" y1="45" x2="82" y2="45" stroke="#2c3e50" stroke-width="2" stroke-dasharray="3 3"/>
  <line x1="63" y1="26" x2="63" y2="64" stroke="#2c3e50" stroke-width="2" stroke-dasharray="3 3"/>
  <rect x="48" y="30" width="11" height="11" fill="none" stroke="url(#magicGradient)" stroke-width="3" rx="1"/>
  <rect x="67" y="49" width="11" height="11" fill="none" stroke="url(#magicGradient)" stroke-width="3" rx="1"/>

  <path d="M 88 12 Q 88 18 94 18 Q 88 18 88 24 Q 88 18 82 18 Q 88 18 88 12 Z" fill="#f5a623" />
</svg>