<svg xmlns="http://www.w3.org/2000/svg" viewBox="0 0 96 96">
  <defs>
    <linearGradient id="magicGradient" x1="0%" y1="100%" x2="100%" y2="0%">
      <stop offset="0%" stop-color="#4a90e2"/>
      <stop offset="100%" stop-color="#9013fe"/>
    </linearGradient>
  </defs>

  <!-- Source: viewport in building (gray outline + corner brackets) -->
  <rect x="8" y="26" width="36" height="46" rx="3" fill="none" stroke="#888888" stroke-width="4"/>
  <path d="M 16 34 L 16 28 L 22 28" fill="none" stroke="#2c3e50" stroke-width="3.5" stroke-linecap="square" stroke-linejoin="miter"/>
  <path d="M 36 34 L 36 28 L 30 28" fill="none" stroke="#2c3e50" stroke-width="3.5" stroke-linecap="square" stroke-linejoin="miter"/>
  <path d="M 16 64 L 16 70 L 22 70" fill="none" stroke="#2c3e50" stroke-width="3.5" stroke-linecap="square" stroke-linejoin="miter"/>
  <path d="M 36 64 L 36 70 L 30 70" fill="none" stroke="#2c3e50" stroke-width="3.5" stroke-linecap="square" stroke-linejoin="miter"/>

  <!-- Export arrow -->
  <line x1="48" y1="49" x2="57" y2="49" stroke="#2c3e50" stroke-width="4" stroke-linecap="round"/>
  <path d="M 53 43 L 59 49 L 53 55" fill="none" stroke="#2c3e50" stroke-width="4" stroke-linecap="round" stroke-linejoin="round"/>

  <!-- Target: stacked gradient rects (exported JSON) -->
  <rect x="62" y="46" width="26" height="28" rx="3" fill="none" stroke="url(#magicGradient)" stroke-width="4" opacity="0.45"/>
  <rect x="64" y="38" width="26" height="28" rx="3" fill="none" stroke="url(#magicGradient)" stroke-width="5"/>
  <!-- Data lines inside -->
  <line x1="70" y1="46" x2="82" y2="46" stroke="url(#magicGradient)" stroke-width="2.5" stroke-linecap="round" opacity="0.8"/>
  <line x1="70" y1="52" x2="80" y2="52" stroke="url(#magicGradient)" stroke-width="2.5" stroke-linecap="round" opacity="0.8"/>

  <!-- Large sparkle top-right: custom / unique indicator -->
  <path d="M 76 6 Q 76 18 88 18 Q 76 18 76 30 Q 76 18 64 18 Q 76 18 76 6 Z" fill="#f5a623"/>
</svg>
