<svg xmlns="http://www.w3.org/2000/svg" viewBox="0 0 96 96" width="96" height="96">
  <title>Audit Sheets Icon</title>
  <defs>
    <linearGradient id="magicGradient" x1="0%" y1="100%" x2="100%" y2="0%">
      <stop offset="0%" stop-color="#4a90e2" />
      <stop offset="100%" stop-color="#9013fe" />
    </linearGradient>
  </defs>

  <rect x="8" y="8" width="80" height="80" rx="3" fill="none" stroke="#888888" stroke-width="4"/>
  <line x1="74" y1="8" x2="74" y2="88" stroke="#888888" stroke-width="3"/>

  <rect x="16" y="16" width="24" height="20" rx="1" fill="none" stroke="#888888" stroke-width="3"/>
  <rect x="46" y="16" width="22" height="20" rx="1" fill="none" stroke="#888888" stroke-width="3"/>

  <rect x="16" y="44" width="52" height="34" rx="1" fill="none" stroke="#888888" stroke-width="3" stroke-dasharray="5 4"/>

  <circle cx="42" cy="62" r="18" fill="#ffffff" stroke="url(#magicGradient)" stroke-width="5"/>
  <line x1="55" y1="75" x2="68" y2="88" stroke="#2c3e50" stroke-width="6" stroke-linecap="round"/>

  <line x1="42" y1="52" x2="42" y2="64" stroke="#f5a623" stroke-width="4" stroke-linecap="round"/>
  <circle cx="42" cy="70" r="2.5" fill="#f5a623"/>

  <path d="M 86 16 Q 86 20 90 20 Q 86 20 86 24 Q 86 20 82 20 Q 86 20 86 16 Z" fill="#f5a623" />
  <path d="M 10 90 Q 10 93 13 93 Q 10 93 10 96 Q 10 93 7 93 Q 10 93 10 90 Z" fill="#f5a623" />
</svg>