<svg xmlns="http://www.w3.org/2000/svg" viewBox="0 0 96 96" width="96" height="96">
  <defs>
    <linearGradient id="magicGradient" x1="0%" y1="100%" x2="100%" y2="0%">
      <stop offset="0%" stop-color="#4a90e2" />
      <stop offset="100%" stop-color="#9013fe" />
    </linearGradient>
  </defs>

  <rect x="20" y="20" width="48" height="36" fill="none" stroke="url(#magicGradient)" stroke-width="5" rx="3" opacity="0.5"/>

  <rect x="36" y="36" width="48" height="36" fill="none" stroke="#888888" stroke-width="5" stroke-dasharray="6 4" rx="3" />

  <path d="M 36 46 L 36 36 L 46 36" fill="none" stroke="#2c3e50" stroke-width="4" stroke-linecap="round" stroke-linejoin="round"/>
  <path d="M 84 62 L 84 72 L 74 72" fill="none" stroke="#2c3e50" stroke-width="4" stroke-linecap="round" stroke-linejoin="round"/>

  <path d="M 80 16 Q 80 24 88 24 Q 80 24 80 32 Q 80 24 72 24 Q 80 24 80 16 Z" fill="#f5a623" />
  <path d="M 24 64 Q 24 68 28 68 Q 24 68 24 72 Q 24 68 20 68 Q 24 68 24 64 Z" fill="#f5a623" />
</svg>