<svg xmlns="http://www.w3.org/2000/svg" viewBox="0 0 96 96" width="96" height="96">
  <defs>
    <linearGradient id="magicGradient" x1="0%" y1="100%" x2="100%" y2="0%">
      <stop offset="0%" stop-color="#4a90e2"/>
      <stop offset="100%" stop-color="#9013fe"/>
    </linearGradient>
  </defs>

  <!-- Background dependent view (dashed gray) -->
  <rect x="10" y="14" width="48" height="36" rx="3" fill="none" stroke="#888888" stroke-width="4" stroke-dasharray="6 4"/>

  <!-- Foreground dependent view (gradient) -->
  <rect x="34" y="40" width="52" height="40" rx="3" fill="none" stroke="url(#magicGradient)" stroke-width="5"/>

  <!-- Corner brackets on foreground (crop region) -->
  <g fill="none" stroke="#2c3e50" stroke-width="3.5" stroke-linecap="square" stroke-linejoin="miter">
    <path d="M 40 50 L 40 46 L 44 46"/>
    <path d="M 80 46 L 84 46 L 84 50"/>
    <path d="M 44 76 L 40 76 L 40 72"/>
    <path d="M 84 72 L 84 76 L 80 76"/>
  </g>

  <!-- Large sparkle top-right -->
  <path d="M 80 8 Q 80 18 90 18 Q 80 18 80 28 Q 80 18 70 18 Q 80 18 80 8 Z" fill="#f5a623"/>

  <!-- Small sparkle bottom-left -->
  <path d="M 14 78 Q 14 82 18 82 Q 14 82 14 86 Q 14 82 10 82 Q 14 82 14 78 Z" fill="#f5a623"/>
</svg>
