<svg xmlns="http://www.w3.org/2000/svg" viewBox="0 0 96 96" width="96" height="96">
  <title>Audit Views Icon</title>
  <defs>
    <linearGradient id="magicGradient" x1="0%" y1="100%" x2="100%" y2="0%">
      <stop offset="0%" stop-color="#4a90e2" />
      <stop offset="100%" stop-color="#9013fe" />
    </linearGradient>
  </defs>

  <rect x="16" y="20" width="44" height="36" rx="2" fill="none" stroke="#888888" stroke-width="4" stroke-dasharray="6 4" stroke-linejoin="round"/>
  <path d="M 26 26 Q 23 26 23 30 Q 23 34 26 34 M 32 26 Q 35 26 35 30 Q 35 34 32 34" fill="none" stroke="#888888" stroke-width="2.5" stroke-linecap="round"/>

  <rect x="36" y="36" width="44" height="36" rx="2" fill="none" stroke="#888888" stroke-width="4" stroke-linejoin="round"/>

  <circle cx="48" cy="48" r="20" fill="none" stroke="url(#magicGradient)" stroke-width="5"/>
  <line x1="62" y1="62" x2="78" y2="78" stroke="#2c3e50" stroke-width="6" stroke-linecap="round"/>

  <line x1="48" y1="36" x2="48" y2="50" stroke="#f5a623" stroke-width="4" stroke-linecap="round"/>
  <circle cx="48" cy="58" r="2.5" fill="#f5a623"/>

  <path d="M 84 20 Q 84 24 88 24 Q 84 24 84 28 Q 84 24 80 24 Q 84 24 84 20 Z" fill="#f5a623" />
  <path d="M 12 72 Q 12 76 16 76 Q 12 76 12 80 Q 12 76 8 76 Q 12 76 12 72 Z" fill="#f5a623" />
</svg>