<svg xmlns="http://www.w3.org/2000/svg" viewBox="0 0 96 96" width="96" height="96">
  <defs>
    <linearGradient id="magicGradient" x1="0%" y1="100%" x2="100%" y2="0%">
      <stop offset="0%" stop-color="#4a90e2" />
      <stop offset="100%" stop-color="#9013fe" />
    </linearGradient>
  </defs>

  <path d="M 6 24 L 16 24 L 24 32 L 24 68 L 6 68 Z" fill="none" stroke="#888888" stroke-width="4" stroke-linejoin="round"/>
  <path d="M 16 24 L 16 32 L 24 32" fill="none" stroke="#888888" stroke-width="4" stroke-linejoin="round"/>
  <path d="M 12 40 Q 10 40 10 46 Q 10 52 12 52 M 18 40 Q 20 40 20 46 Q 20 52 18 52" fill="none" stroke="#888888" stroke-width="3" stroke-linecap="round"/>

  <path d="M 30 46 L 40 46 M 34 40 L 40 46 L 34 52" fill="none" stroke="#2c3e50" stroke-width="4" stroke-linecap="round" stroke-linejoin="round"/>
  
  <rect x="46" y="28" width="32" height="24" fill="none" stroke="url(#magicGradient)" stroke-width="5" rx="3" opacity="0.5"/>
  <rect x="56" y="38" width="32" height="24" fill="none" stroke="url(#magicGradient)" stroke-width="5" rx="3" />
  <path d="M 56 48 L 56 38 L 66 38" fill="none" stroke="#2c3e50" stroke-width="4" stroke-linecap="round" stroke-linejoin="round"/>

  <path d="M 86 16 Q 86 22 92 22 Q 86 22 86 28 Q 86 22 80 22 Q 86 22 86 16 Z" fill="#f5a623" />
</svg>