<svg xmlns="http://www.w3.org/2000/svg" viewBox="0 0 96 96" width="96" height="96">
  <title>Rename Views Icon</title>
  <defs>
    <linearGradient id="magicGradient" x1="0%" y1="100%" x2="100%" y2="0%">
      <stop offset="0%" stop-color="#4a90e2" />
      <stop offset="100%" stop-color="#9013fe" />
    </linearGradient>
  </defs>

  <path d="M 44 10 Q 40 10 40 16 Q 40 22 44 22 M 52 10 Q 56 10 56 16 Q 56 22 52 22" fill="none" stroke="#888888" stroke-width="3" stroke-linecap="round"/>
  <line x1="48" y1="26" x2="48" y2="34" stroke="#2c3e50" stroke-width="2" stroke-dasharray="3 3"/>
  <polyline points="45,31 48,34 51,31" fill="none" stroke="#2c3e50" stroke-width="2" stroke-linecap="round"/>

  <path d="M 22 64 L 14 64 L 14 26 L 82 26 L 82 64 L 74 64" fill="none" stroke="#888888" stroke-width="4" stroke-linejoin="round"/>

  <line x1="26" y1="40" x2="50" y2="40" stroke="#888888" stroke-width="4" stroke-linecap="round"/>
  <line x1="22" y1="44" x2="54" y2="36" stroke="#2c3e50" stroke-width="3" stroke-linecap="round"/>

  <rect x="22" y="52" width="52" height="24" rx="2" fill="none" stroke="url(#magicGradient)" stroke-width="4"/>
  <line x1="30" y1="64" x2="54" y2="64" stroke="url(#magicGradient)" stroke-width="4" stroke-linecap="round"/>
  
  <g stroke="#2c3e50" stroke-width="3" stroke-linecap="round">
    <line x1="62" y1="58" x2="62" y2="70" />
    <line x1="59" y1="58" x2="65" y2="58" stroke-width="2"/>
    <line x1="59" y1="70" x2="65" y2="70" stroke-width="2"/>
  </g>

  <path d="M 80 40 Q 80 44 84 44 Q 80 44 80 48 Q 80 44 76 44 Q 80 44 80 40 Z" fill="#f5a623" />
  <path d="M 18 12 Q 18 15 21 15 Q 18 15 18 18 Q 18 15 15 15 Q 18 15 18 12 Z" fill="#f5a623" />
</svg>