<svg xmlns="http://www.w3.org/2000/svg" viewBox="0 0 96 96" width="96" height="96">
  <defs>
    <linearGradient id="magicGradient" x1="0%" y1="100%" x2="100%" y2="0%">
      <stop offset="0%" stop-color="#4a90e2" />
      <stop offset="100%" stop-color="#9013fe" />
    </linearGradient>
  </defs>

  <rect x="12" y="48" width="38" height="28" fill="none" stroke="#888888" stroke-width="5" stroke-dasharray="6 4" rx="3" />

  <rect x="28" y="32" width="38" height="28" fill="none" stroke="url(#magicGradient)" stroke-width="5" rx="3" opacity="0.7"/>

  <rect x="44" y="16" width="38" height="28" fill="none" stroke="url(#magicGradient)" stroke-width="5" rx="3" />

  <path d="M 44 26 L 44 16 L 54 16" fill="none" stroke="#2c3e50" stroke-width="4" stroke-linecap="round" stroke-linejoin="round"/>
  <path d="M 82 34 L 82 44 L 72 44" fill="none" stroke="#2c3e50" stroke-width="4" stroke-linecap="round" stroke-linejoin="round"/>

  <path d="M 76 6 Q 76 18 88 18 Q 76 18 76 30 Q 76 18 64 18 Q 76 18 76 6 Z" fill="#f5a623" />
  
  <path d="M 90 32 Q 90 38 96 38 Q 90 38 90 44 Q 90 38 84 38 Q 90 38 90 32 Z" fill="#f5a623" />
</svg>