<svg xmlns="http://www.w3.org/2000/svg" viewBox="0 0 96 96" width="96" height="96">
  <title>Align Titleblocks Icon</title>
  <defs>
    <linearGradient id="magicGradient" x1="0%" y1="100%" x2="100%" y2="0%">
      <stop offset="0%" stop-color="#4a90e2" />
      <stop offset="100%" stop-color="#9013fe" />
    </linearGradient>
  </defs>

  <line x1="68" y1="10" x2="68" y2="86" stroke="#2c3e50" stroke-width="3" stroke-dasharray="6 4" stroke-linecap="round"/>

  <g fill="none" stroke="#888888" stroke-linejoin="round">
    <rect x="4" y="16" width="52" height="18" rx="2" stroke-width="3"/>
    <line x1="46" y1="16" x2="46" y2="34" stroke-width="3"/>
    <polyline points="61,22 65,25 61,28" stroke="#2c3e50" stroke-width="2.5" stroke-linecap="round"/>
    <line x1="58" y1="25" x2="65" y2="25" stroke="#2c3e50" stroke-width="2.5" stroke-linecap="round"/>
  </g>

  <g fill="none" stroke="#888888" stroke-linejoin="round">
    <rect x="28" y="62" width="52" height="18" rx="2" stroke-width="3"/>
    <line x1="70" y1="62" x2="70" y2="80" stroke-width="3"/>
    <polyline points="75,68 71,71 75,74" stroke="#2c3e50" stroke-width="2.5" stroke-linecap="round"/>
    <line x1="78" y1="71" x2="71" y2="71" stroke="#2c3e50" stroke-width="2.5" stroke-linecap="round"/>
  </g>

  <g fill="none" stroke="url(#magicGradient)" stroke-linejoin="round">
    <rect x="16" y="39" width="52" height="18" rx="2" stroke-width="4"/>
    <line x1="58" y1="39" x2="58" y2="57" stroke-width="4"/>
  </g>

  <path d="M 84 46 Q 84 50 88 50 Q 84 50 84 54 Q 84 50 80 50 Q 84 50 84 46 Z" fill="#f5a623" />
  <path d="M 12 76 Q 12 80 16 80 Q 12 80 12 84 Q 12 80 8 80 Q 12 80 12 76 Z" fill="#f5a623" />
</svg>